<svg xmlns="http://www.w3.org/2000/svg" viewBox="0 0 1254 1254">
  <defs>
    <filter id="pulse-blur" x="-30%" y="-30%" width="160%" height="160%">
      <feGaussianBlur stdDeviation="14" />
    </filter>
  </defs>
  <style>
    @keyframes breathe {
      0%, 100% { opacity: 0.3; }
      50% { opacity: 0.7; }
    }
    @keyframes scale-in {
      from { opacity: 0; transform: scale(0.9); }
      to { opacity: 1; transform: scale(1); }
    }
    .logo-container {
      transform-origin: 627px 627px;
    }
    .glow-layer {
      fill: rgba(255, 255, 255, 0.3);
      filter: url(#pulse-blur);
      animation: breathe 3s ease-in-out infinite;
    }
    .main-layer {
      fill: #ffffff;
      animation: scale-in 0.8s cubic-bezier(0.22, 0.61, 0.36, 1) forwards;
      transition: transform 0.3s cubic-bezier(0.25, 0.46, 0.45, 0.94);
    }
    .logo-container:hover .main-layer {
      transform: scale(1.03);
    }
  </style>
  <g class="logo-container">
    <path class="glow-layer" d="M 918 366.067 C 870.848 369.581, 824.184 377.329, 779 389.146 C 750.439 396.615, 700.920 412.625, 698.500 415.172 C 697.811 415.898, 698.121 416.047, 699.500 415.654 C 741.183 403.750, 785.890 393.541, 818.256 388.534 C 909.644 374.396, 981.397 378.336, 1023.500 399.804 C 1032.805 404.548, 1035.816 406.729, 1043.040 413.956 C 1052.102 423.023, 1055.741 429.068, 1058.492 439.631 C 1061.590 451.526, 1059.658 468.930, 1053.623 483.500 C 1050.984 489.871, 1042.878 505.237, 1040.897 507.624 C 1037.924 511.206, 1041.414 509.567, 1048.141 504.221 C 1075.079 482.815, 1090.596 450.819, 1085.591 427 C 1078.723 394.317, 1045.637 374.437, 986.622 367.534 C 970.374 365.633, 934.200 364.860, 918 366.067 M 679 400.293 C 667.257 417.432, 659.020 422.299, 634.500 426.584 L 630.500 427.283 637.500 428.591 C 647.296 430.421, 650.754 432.448, 652.176 437.194 C 653.218 440.672, 652.985 442.125, 649.879 451.532 C 647.978 457.289, 646.665 461.987, 646.962 461.972 C 647.258 461.956, 649.027 459.421, 650.894 456.337 C 655.700 448.401, 666.534 437.270, 672.294 434.351 C 677.159 431.886, 691.774 428.156, 697.500 427.919 C 699.419 427.839, 697.616 427.100, 692.500 425.868 C 681.960 423.329, 678.450 420.136, 678.609 413.229 C 678.669 410.628, 679.704 405.635, 680.909 402.133 C 682.114 398.632, 682.965 395.636, 682.800 395.475 C 682.635 395.315, 680.925 397.483, 679 400.293 M 600 454.028 C 586.525 459.495, 571.900 465.765, 567.500 467.960 C 555.496 473.951, 544.765 480.099, 545.329 480.663 C 546.539 481.872, 561.789 478.668, 565.760 476.369 C 572.176 472.657, 610.444 453.723, 619 450.029 C 623.125 448.248, 627.159 446.163, 627.964 445.395 C 631.478 442.047, 623.336 444.561, 600 454.028 M 205.354 526.250 C 177.797 548.388, 130.331 586.505, 99.875 610.956 C 69.419 635.407, 41.225 658.132, 37.222 661.456 L 29.945 667.500 88.222 668 C 132.812 668.383, 147.023 668.799, 148.727 669.773 C 151.869 671.569, 153 674.154, 153 679.539 C 153 683.656, 150.138 689.853, 128.858 731.822 L 104.716 779.434 114.257 770.467 C 119.504 765.535, 141.731 744.569, 163.649 723.877 C 185.567 703.184, 206.200 683.935, 209.500 681.102 C 216.342 675.227, 225.538 670.319, 231.730 669.238 C 235.432 668.592, 238.068 666.507, 252.888 652.500 C 262.199 643.700, 269.858 636.251, 269.908 635.948 C 269.959 635.644, 266.288 636.605, 261.750 638.083 C 236.759 646.225, 222.421 642.661, 227.427 629.553 C 228.353 627.127, 236.889 612.173, 246.396 596.321 C 268.883 558.827, 301.077 504.728, 307.137 494.250 L 311.909 486 283.684 486 L 255.459 486 205.354 526.250 M 211.890 546.846 C 175.431 576.210, 174.916 576.632, 131.118 612.972 L 96.735 641.500 128.293 641.764 C 158.252 642.015, 160.135 641.922, 165.460 639.929 C 174.056 636.713, 181.451 629.210, 189.260 615.781 C 192.869 609.577, 200.186 597.075, 205.520 588 C 222.067 559.853, 243.154 522.820, 242.819 522.498 C 242.644 522.330, 228.725 533.286, 211.890 546.846 M 1218 528.106 C 1202.441 532.604, 1194.210 533, 1116.193 533 L 1042.455 533 1036.448 540.250 C 1023.619 555.732, 1007 577.818, 1007 579.384 C 1007 579.672, 1010.712 577.236, 1015.250 573.970 C 1025.199 566.810, 1034.577 561.744, 1044.277 558.291 C 1050.714 556, 1053.433 555.668, 1069.250 555.248 C 1079.013 554.989, 1087 555.127, 1087 555.555 C 1087 556.524, 1074.433 580.676, 1054.247 618.500 C 1033.561 657.262, 1029.327 664.746, 1025.279 669.695 C 1020.964 674.973, 1010.122 682.421, 1003.247 684.831 C 1000.358 685.844, 997.695 686.971, 997.330 687.336 C 996.965 687.701, 1015.079 687.974, 1037.583 687.941 C 1069.663 687.895, 1078.087 687.625, 1076.586 686.691 C 1068.708 681.788, 1066.265 676.268, 1068.376 668.133 C 1069.517 663.731, 1081.992 640.050, 1113.478 582.510 C 1120.999 568.766, 1127.624 556.954, 1128.199 556.260 C 1129.493 554.701, 1153.680 554.506, 1159.100 556.011 C 1164.462 557.500, 1166.532 560.319, 1166.333 565.857 C 1166.241 568.411, 1165.427 572.236, 1164.524 574.358 C 1163.621 576.480, 1163.065 578.398, 1163.287 578.620 C 1163.509 578.842, 1167.473 575.717, 1172.095 571.676 C 1180.866 564.008, 1219.638 531.923, 1224.627 528.205 C 1228.087 525.626, 1226.652 525.605, 1218 528.106 M 525 531.284 C 517.336 533.094, 513.794 533.258, 489 532.947 C 418.775 532.066, 413.354 532.392, 394 538.670 C 381.404 542.755, 372.161 548.047, 363.546 556.106 C 352.383 566.548, 347 577.777, 347 590.621 C 347 601.700, 351.518 608.519, 362.410 613.881 C 370.669 617.947, 378.766 619.953, 409.123 625.453 C 435.576 630.246, 440.932 631.827, 444.019 635.751 C 448.225 641.098, 445.158 650.289, 436.693 657.704 C 431.443 662.303, 419.735 667.602, 410.792 669.427 C 400.980 671.429, 381.615 671.467, 371.352 669.503 C 554.209 666.223, 345.087 661.532, 341.175 653.985 C 339.226 650.227, 338.936 648.497, 339.381 643.310 L 339.914 637.119 328.207 649.195 C 321.768 655.836, 308.850 668.029, 299.500 676.291 C 290.150 684.552, 281.825 691.981, 281 692.798 C 279.669 694.116, 279.726 694.195, 281.500 693.494 C 286.270 691.610, 298.304 688.925, 308.284 687.519 C 321.784 685.617, 330.878 685.622, 363.500 687.545 C 415.355 690.602, 444.691 685.383, 469.500 668.685 C 495.765 651.008, 504.332 621.268, 486.661 609.111 C 477.232 602.623, 467.896 599.948, 435.500 594.450 C 411.128 590.314, 403.680 588.557, 399.422 585.941 C 388.412 579.175, 395.196 562.931, 412.377 554.922 C 422.428 550.236, 430.194 548.670, 443.500 548.643 C 473.076 548.583, 487.886 558.200, 484.109 575.012 C 483.257 578.802, 483.343 581.325, 484.276 579.917 C 484.428 579.688, 489.020 574.611, 494.482 568.635 C 503.580 558.681, 520.986 542, 531.930 532.746 C 536.913 528.532, 536.772 528.503, 525 531.284 M 692.909 533.500 C 668.600 536.446, 646.954 544.635, 628.667 557.802 C 619.100 564.689, 604.990 579.231, 598.771 588.611 C 585.198 609.085, 578.356 631.442, 580.949 646.855 C 586.696 681.020, 621.563 693.901, 686.792 685.957 C 706.813 683.518, 712.347 683.708, 717.792 687.020 C 723.164 690.287, 724.992 694.388, 724.996 703.185 C 724.998 707.412, 724.561 712.024, 724.025 713.435 C 723.488 714.846, 723.392 716, 723.810 716 C 724.228 716, 729.677 706.438, 735.918 694.750 C 774.067 623.315, 777.050 619.089, 794.452 611.806 C 798.393 610.156, 797.756 610.110, 770.320 610.056 L 742.140 610 737.912 617.750 C 735.587 622.013, 732.574 627.525, 731.218 630 C 729.861 632.475, 726.058 639.580, 722.766 645.790 L 716.781 657.080 709.184 661.526 C 678.070 679.740, 641.383 675.515, 630.799 652.500 C 627.539 645.411, 627.567 630.643, 630.861 620.054 C 637.675 598.143, 654.171 575.709, 672.327 563.658 C 686.402 554.316, 699.744 550.082, 717.500 549.322 C 748.769 547.983, 765.754 560.542, 759.603 580.453 C 758.762 583.178, 758.194 585.528, 758.343 585.676 C 758.615 585.949, 797.116 539.707, 799.765 535.925 C 800.557 534.795, 801.046 533.733, 800.852 533.564 C 800.658 533.395, 794.908 533.704, 788.074 534.251 C 778.509 535.016, 769.641 534.868, 749.574 533.606 C 719.610 531.721, 707.770 531.699, 692.909 533.500 M 553.583 536.388 C 557.481 539.759, 557.500 539.812, 557.485 547.138 L 557.471 554.500 529.485 609.970 C 501.805 664.837, 501.424 665.518, 494.500 672.563 C 487.937 679.240, 484.071 681.687, 472 686.805 C 470.181 687.576, 480.638 687.883, 510.417 687.932 C 532.921 687.970, 551.069 687.736, 550.746 687.412 C 550.423 687.089, 548.692 686.077, 546.900 685.162 C 541.655 682.486, 539.492 678.701, 539.555 672.310 C 539.606 667.198, 540.817 664.378, 555.304 635.636 C 582.773 581.137, 595.839 556.664, 600.129 551.678 C 605.389 545.566, 616.650 537.620, 622.499 535.892 C 624.975 535.161, 627 534.212, 627 533.782 C 627 533.352, 609.600 533, 588.333 533 L 549.667 533 553.583 536.388 M 836 533.933 C 836 534.446, 836.860 535.138, 837.911 535.472 C 841.306 536.549, 843.200 540.779, 843.200 547.287 C 843.200 552.887, 842.560 554.619, 834.651 570.420 C 824.485 590.732, 812.170 614.456, 796.197 644.500 C 780.690 673.665, 776.851 677.608, 755 686.812 C 753.190 687.574, 763.746 687.883, 793.250 687.932 C 815.663 687.970, 834 687.784, 834 687.520 C 834 687.257, 832.209 686.127, 830.021 685.011 C 824.707 682.300, 822.655 678.173, 823.222 671.338 C 823.698 665.597, 823.893 665.173, 840.293 634.261 L 850.500 615.022 887.250 615.011 C 907.462 615.011, 924 615.291, 924 615.646 C 924 616.001, 921.024 621.964, 917.387 628.896 C 896.015 669.626, 894.135 672.406, 882.857 679.937 C 879.528 682.160, 874.936 684.509, 872.652 685.158 C 870.369 685.806, 868.073 686.711, 867.550 687.169 C 867.028 687.626, 885.028 687.986, 907.550 687.968 C 950.641 687.935, 949.740 688.044, 942.033 683.773 C 937.839 681.448, 935.623 676, 936.498 670.164 C 937.233 665.262, 941.448 656.876, 970.257 603 C 994.033 558.536, 995.936 555.279, 1001.431 549.624 C 1006.640 544.265, 1016.533 537.622, 1021.822 535.933 C 1023.845 535.287, 1025.927 534.363, 1026.450 533.879 C 1026.998 533.879, 1011.859 533, 990.700 533 C 966.900 533, 954 533.351, 954 534 C 954 534.550, 954.413 535, 954.917 535 C 955.422 535, 956.589 536.975, 957.511 539.390 C 960.113 546.204, 958.405 551.631, 946.618 574 L 936.343 593.500 899.171 593.762 C 878.727 593.906, 862 593.888, 862 593.722 C 862 593.017, 878.493 562.014, 881.642 556.800 C 886.103 549.413, 896.573 539.864, 903.502 536.865 C 906.507 535.564, 908.974 534.163, 908.983 533.750 C 908.992 533.337, 892.575 533, 872.500 533 C 850.592 533, 836 533.373, 836 533.933 M 706.992 587.776 C 695.909 602.012, 686.545 607.670, 670.500 609.824 L 664.500 610.630 670.466 611.931 C 674.903 612.898, 677.307 614.107, 679.851 616.651 C 683.134 619.934, 683.250 620.304, 682.746 625.864 C 682.457 629.050, 680.830 634.967, 679.129 639.014 C 677.429 643.060, 676.169 646.502, 676.329 646.663 C 676.490 646.823, 679.209 643.415, 682.372 639.090 C 690.435 628.067, 697.991 620.636, 704.194 617.632 C 710.105 614.768, 719.943 612, 724.210 612 C 728.774 612, 727.378 610.308, 722.250 609.624 C 716.313 608.833, 711.281 605.837, 709.864 602.250 C 708.568 598.970, 710.007 590.483, 713.068 583.342 C 714.158 580.798, 714.923 578.590, 714.768 578.434 C 714.612 578.279, 711.113 582.482, 706.992 587.776 M 203.978 632.261 C 198.156 642.640, 189.414 648.924, 178.500 650.578 L 173.500 651.335 178.500 652.625 C 183.949 654.030, 187 656.888, 187 660.588 C 187 661.889, 185.895 665.890, 184.545 669.477 C 183.194 673.065, 182.242 676, 182.427 676 C 182.613 676, 184.670 673.075, 186.999 669.501 C 194.025 658.718, 199.681 654.703, 210.862 652.561 L 217.500 651.289 212.738 650.529 C 203.128 648.996, 200.973 644.356, 204.976 633.820 C 206.063 630.960, 206.818 628.485, 206.654 628.321 C 206.490 628.157, 205.286 629.930, 203.978 632.261 M 258.357 717.992 C 255.390 719.189, 253 722.896, 253 726.299 C 253 729.724, 257.835 735, 260.973 735 C 264.516 735, 268.645 732.272, 269.980 729.047 C 271.625 725.077, 269.865 720.499, 265.909 718.453 C 262.755 716.822, 261.452 716.743, 258.357 717.992 M 302 717.685 C 298.530 719.002, 296 722.398, 296 725.740 C 296 730.337, 297.384 732.590, 300.979 733.843 C 307.364 736.069, 313.924 730.485, 312.507 724.031 C 311.489 719.398, 306.087 716.135, 302 717.685 M 344 717.706 C 334.676 721.115, 336.791 734.400, 346.657 734.400 C 354.446 734.400, 357.919 724.634, 351.923 719.589 C 348.911 717.055, 347.015 716.604, 344 717.706 M 385.357 717.992 C 376.996 721.366, 379.368 734.400, 388.343 734.400 C 396.443 734.400, 399.879 725.725, 394.077 719.923 C 391.075 716.921, 389.096 716.483, 385.357 717.992 M 733.957 731.976 C 727.609 735.186, 714.334 741.289, 704.457 745.537 C 635.147 775.351, 564.846 794.641, 496.345 802.641 C 477.499 804.842, 429.569 805.170, 417.500 803.182 C 396.506 799.722, 381.455 794.940, 371.666 788.618 C 360.903 781.667, 353 770.737, 353 762.804 C 353 760.712, 352.585 759, 352.078 759 C 350.559 759, 344.276 766.896, 341.841 771.864 C 338.738 778.195, 338.549 791.578, 341.479 797.500 C 347.426 809.519, 363.466 818.099, 388.500 822.652 C 403.556 825.391, 443.404 825.131, 466.500 822.144 C 528.418 814.136, 585.705 798.713, 654.189 771.614 C 669.190 765.679, 678.468 761.601, 704.500 749.500 C 713.778 745.188, 742.563 729.795, 745.502 727.574 C 749.315 724.692, 745.440 726.170, 733.957 731.976 M 870.500 728.976 C 858.842 730.827, 863.753 728.893, 787 761.858 C 776.021 766.573, 775.304 767.031, 777.216 768.101 C 778.118 768.606, 780.787 768.121, 784.095 766.853 C 787.068 765.713, 806.484 759.012, 827.242 751.962 C 854.746 742.621, 867.697 737.700, 874.987 733.822 C 889.020 726.355, 888.763 726.077, 870.500 728.976 M 757.668 756.322 C 754.094 760.899, 749.537 766.078, 747.541 767.830 C 740.526 773.989, 729.788 778.091, 714 780.640 L 709.500 781.367 716.276 782.649 C 724.491 784.203, 729.681 786.542, 731.214 789.380 C 733.174 793.009, 732.316 800.107, 728.662 810.490 C 726.729 815.985, 725.261 820.594, 725.399 820.732 C 725.537 820.871, 728.298 817.050, 731.535 812.242 C 738.597 801.750, 748.023 792.136, 754.160 789.165 C 758.387 787.118, 769.574 784.028, 778.500 782.441 L 782.500 781.730 775 780.064 C 766.458 778.165, 763.907 776.805, 761.616 772.928 C 759.425 769.218, 759.580 765.678, 762.350 756.113 C 763.642 751.651, 764.580 748, 764.433 748 C 764.286 748, 761.242 751.745, 757.668 756.322 M 713 799.119 C 701.666 804.347, 670.419 816.482, 649.375 823.831 C 568.763 851.979, 487.638 868.370, 425.170 869.130 L 414.500 869.259 422 870.203 C 436.266 871.998, 475.250 869.769, 505.500 865.429 C 565.215 856.863, 643.742 834.870, 700.145 810.915 C 708.040 807.562, 715.737 804.311, 717.250 803.690 C 719.320 802.841, 720 801.874, 720 799.781 C 720 796.463, 718.971 796.366, 713 799.119" fill-rule="evenodd" stroke="none"/>
  </g>
</svg>
