<svg xmlns="http://www.w3.org/2000/svg" viewBox="233.00 696.13 186.88 59.93" width="100%" height="100%">
  <path d="M 258.357 717.992 C 255.390 719.189, 253 722.896, 253 726.299 C 253 729.724, 257.835 735, 260.973 735 C 264.516 735, 268.645 732.272, 269.980 729.047 C 271.625 725.077, 269.865 720.499, 265.909 718.453 C 262.755 716.822, 261.452 716.743, 258.357 717.992  M 302 717.685 C 298.530 719.002, 296 722.398, 296 725.740 C 296 730.337, 297.384 732.590, 300.979 733.843 C 307.364 736.069, 313.924 730.485, 312.507 724.031 C 311.489 719.398, 306.087 716.135, 302 717.685  M 344 717.706 C 334.676 721.115, 336.791 734.400, 346.657 734.400 C 354.446 734.400, 357.919 724.634, 351.923 719.589 C 348.911 717.055, 347.015 716.604, 344 717.706  M 385.357 717.992 C 376.996 721.366, 379.368 734.400, 388.343 734.400 C 396.443 734.400, 399.879 725.725, 394.077 719.923 C 391.075 716.921, 389.096 716.483, 385.357 717.992 " fill="#ffffff" fill-rule="evenodd" stroke="none" />
</svg>