<svg xmlns="http://www.w3.org/2000/svg" viewBox="277.67 375.31 261.24 424.12" width="100%" height="100%">
  <path d="M 525 531.284 C 517.336 533.094, 513.794 533.258, 489 532.947 C 418.775 532.066, 413.354 532.392, 394 538.670 C 381.404 542.755, 372.161 548.047, 363.546 556.106 C 352.383 566.548, 347 577.777, 347 590.621 C 347 601.700, 351.518 608.519, 362.410 613.881 C 370.669 617.947, 378.766 619.953, 409.123 625.453 C 435.576 630.246, 440.932 631.827, 444.019 635.751 C 448.225 641.098, 445.158 650.289, 436.693 657.704 C 431.443 662.303, 419.735 667.602, 410.792 669.427 C 400.980 671.429, 381.615 671.467, 371.352 669.503 C 354.209 666.223, 345.087 661.532, 341.175 653.985 C 339.226 650.227, 338.936 648.497, 339.381 643.310 L 339.914 637.119 328.207 649.195 C 321.768 655.836, 308.850 668.029, 299.500 676.291 C 290.150 684.552, 281.825 691.981, 281 692.798 C 279.669 694.116, 279.726 694.195, 281.500 693.494 C 286.270 691.610, 298.304 688.925, 308.284 687.519 C 321.784 685.617, 330.878 685.622, 363.500 687.545 C 415.355 690.602, 444.691 685.383, 469.500 668.685 C 495.765 651.008, 504.332 621.268, 486.661 609.111 C 477.232 602.623, 467.896 599.948, 435.500 594.450 C 411.128 590.314, 403.680 588.557, 399.422 585.941 C 388.412 579.175, 395.196 562.931, 412.377 554.922 C 422.428 550.236, 430.194 548.670, 443.500 548.643 C 473.076 548.583, 487.886 558.200, 484.109 575.012 C 483.257 578.802, 483.343 581.325, 484.276 579.917 C 484.428 579.688, 489.020 574.611, 494.482 568.635 C 503.580 558.681, 520.986 542, 531.930 532.746 C 536.913 528.532, 536.772 528.503, 525 531.284 " fill="#ffffff" fill-rule="evenodd" stroke="none" />
</svg>