<svg xmlns="http://www.w3.org/2000/svg" viewBox="468.18 375.31 165.30 424.12" width="100%" height="100%">
  <path d="M 600 454.028 C 586.525 459.495, 571.900 465.765, 567.500 467.960 C 555.496 473.951, 544.765 480.099, 545.329 480.663 C 546.539 481.872, 561.789 478.668, 565.760 476.369 C 572.176 472.657, 610.444 453.723, 619 450.029 C 623.125 448.248, 627.159 446.163, 627.964 445.395 C 631.478 442.047, 623.336 444.561, 600 454.028  M 553.583 536.388 C 557.481 539.759, 557.500 539.812, 557.485 547.138 L 557.471 554.500 529.485 609.970 C 501.805 664.837, 501.424 665.518, 494.500 672.563 C 487.937 679.240, 484.071 681.687, 472 686.805 C 470.181 687.576, 480.638 687.883, 510.417 687.932 C 532.921 687.970, 551.069 687.736, 550.746 687.412 C 550.423 687.089, 548.692 686.077, 546.900 685.162 C 541.655 682.486, 539.492 678.701, 539.555 672.310 C 539.606 667.198, 540.817 664.378, 555.304 635.636 C 582.773 581.137, 595.839 556.664, 600.129 551.678 C 605.389 545.566, 616.650 537.620, 622.499 535.892 C 624.975 535.161, 627 534.212, 627 533.782 C 627 533.352, 609.600 533, 588.333 533 L 549.667 533 553.583 536.388 " fill="#ffffff" fill-rule="evenodd" stroke="none" />
</svg>