<svg xmlns="http://www.w3.org/2000/svg" viewBox="27.95 375.31 285.96 424.12" width="100%" height="100%">
  <path d="M 205.354 526.250 C 177.797 548.388, 130.331 586.505, 99.875 610.956 C 69.419 635.407, 41.225 658.132, 37.222 661.456 L 29.945 667.500 88.222 668 C 132.812 668.383, 147.023 668.799, 148.727 669.773 C 151.869 671.569, 153 674.154, 153 679.539 C 153 683.656, 150.138 689.853, 128.858 731.822 L 104.716 779.434 114.257 770.467 C 119.504 765.535, 141.731 744.569, 163.649 723.877 C 185.567 703.184, 206.200 683.935, 209.500 681.102 C 216.342 675.227, 225.538 670.319, 231.730 669.238 C 235.432 668.592, 238.068 666.507, 252.888 652.500 C 262.199 643.700, 269.858 636.251, 269.908 635.948 C 269.959 635.644, 266.288 636.605, 261.750 638.083 C 236.759 646.225, 222.421 642.661, 227.427 629.553 C 228.353 627.127, 236.889 612.173, 246.396 596.321 C 268.883 558.827, 301.077 504.728, 307.137 494.250 L 311.909 486 283.684 486 L 255.459 486 205.354 526.250  M 211.890 546.846 C 175.431 576.210, 174.916 576.632, 131.118 612.972 L 96.735 641.500 128.293 641.764 C 158.252 642.015, 160.135 641.922, 165.460 639.929 C 174.056 636.713, 181.451 629.210, 189.260 615.781 C 192.869 609.577, 200.186 597.075, 205.520 588 C 222.067 559.853, 243.154 522.820, 242.819 522.498 C 242.644 522.330, 228.725 533.286, 211.890 546.846  M 203.978 632.261 C 198.156 642.640, 189.414 648.924, 178.500 650.578 L 173.500 651.335 178.500 652.625 C 183.949 654.030, 187 656.888, 187 660.588 C 187 661.889, 185.895 665.890, 184.545 669.477 C 183.194 673.065, 182.242 676, 182.427 676 C 182.613 676, 184.670 673.075, 186.999 669.501 C 194.025 658.718, 199.681 654.703, 210.862 652.561 L 217.500 651.289 212.738 650.529 C 203.128 648.996, 200.973 644.356, 204.976 633.820 C 206.063 630.960, 206.818 628.485, 206.654 628.321 C 206.490 628.157, 205.286 629.930, 203.978 632.261 " fill="#ffffff" fill-rule="evenodd" stroke="none" />
</svg>