<svg xmlns="http://www.w3.org/2000/svg" viewBox="576.36 375.31 226.69 424.12" width="100%" height="100%">
  <path d="M 679 400.293 C 667.257 417.432, 659.020 422.299, 634.500 426.584 L 630.500 427.283 637.500 428.591 C 647.296 430.421, 650.754 432.448, 652.176 437.194 C 653.218 440.672, 652.985 442.125, 649.879 451.532 C 647.978 457.289, 646.665 461.987, 646.962 461.972 C 647.258 461.956, 649.027 459.421, 650.894 456.337 C 655.700 448.401, 666.534 437.270, 672.294 434.351 C 677.159 431.886, 691.774 428.156, 697.500 427.919 C 699.419 427.839, 697.616 427.100, 692.500 425.868 C 681.960 423.329, 678.450 420.136, 678.609 413.229 C 678.669 410.628, 679.704 405.635, 680.909 402.133 C 682.114 398.632, 682.965 395.636, 682.800 395.475 C 682.635 395.315, 680.925 397.483, 679 400.293  M 692.909 533.500 C 668.600 536.446, 646.954 544.635, 628.667 557.802 C 619.100 564.689, 604.990 579.231, 598.771 588.611 C 585.198 609.085, 578.356 631.442, 580.949 646.855 C 586.696 681.020, 621.563 693.901, 686.792 685.957 C 706.813 683.518, 712.347 683.708, 717.792 687.020 C 723.164 690.287, 724.992 694.388, 724.996 703.185 C 724.998 707.412, 724.561 712.024, 724.025 713.435 C 723.488 714.846, 723.392 716, 723.810 716 C 724.228 716, 729.677 706.438, 735.918 694.750 C 774.067 623.315, 777.050 619.089, 794.452 611.806 C 798.393 610.156, 797.756 610.110, 770.320 610.056 L 742.140 610 737.912 617.750 C 735.587 622.013, 732.574 627.525, 731.218 630 C 729.861 632.475, 726.058 639.580, 722.766 645.790 L 716.781 657.080 709.184 661.526 C 678.070 679.740, 641.383 675.515, 630.799 652.500 C 627.539 645.411, 627.567 630.643, 630.861 620.054 C 637.675 598.143, 654.171 575.709, 672.327 563.658 C 686.402 554.316, 699.744 550.082, 717.500 549.322 C 748.769 547.983, 765.754 560.542, 759.603 580.453 C 758.762 583.178, 758.194 585.528, 758.343 585.676 C 758.615 585.949, 797.116 539.707, 799.765 535.925 C 800.557 534.795, 801.046 533.733, 800.852 533.564 C 800.658 533.395, 794.908 533.704, 788.074 534.251 C 778.509 535.016, 769.641 534.868, 749.574 533.606 C 719.610 531.721, 707.770 531.699, 692.909 533.500  M 706.992 587.776 C 695.909 602.012, 686.545 607.670, 670.500 609.824 L 664.500 610.630 670.466 611.931 C 674.903 612.898, 677.307 614.107, 679.851 616.651 C 683.134 619.934, 683.250 620.304, 682.746 625.864 C 682.457 629.050, 680.830 634.967, 679.129 639.014 C 677.429 643.060, 676.169 646.502, 676.329 646.663 C 676.490 646.823, 679.209 643.415, 682.372 639.090 C 690.435 628.067, 697.991 620.636, 704.194 617.632 C 710.105 614.768, 719.943 612, 724.210 612 C 728.774 612, 727.378 610.308, 722.250 609.624 C 716.313 608.833, 711.281 605.837, 709.864 602.250 C 708.568 598.970, 710.007 590.483, 713.068 583.342 C 714.158 580.798, 714.923 578.590, 714.768 578.434 C 714.612 578.279, 711.113 582.482, 706.992 587.776 " fill="#ffffff" fill-rule="evenodd" stroke="none" />
</svg>