<svg xmlns="http://www.w3.org/2000/svg" viewBox="994.97 375.31 235.12 424.12" width="100%" height="100%">
  <path d="M 1218 528.106 C 1202.441 532.604, 1194.210 533, 1116.193 533 L 1042.455 533 1036.448 540.250 C 1023.619 555.732, 1007 577.818, 1007 579.384 C 1007 579.672, 1010.712 577.236, 1015.250 573.970 C 1025.199 566.810, 1034.577 561.744, 1044.277 558.291 C 1050.714 556, 1053.433 555.668, 1069.250 555.248 C 1079.013 554.989, 1087 555.127, 1087 555.555 C 1087 556.524, 1074.433 580.676, 1054.247 618.500 C 1033.561 657.262, 1029.327 664.746, 1025.279 669.695 C 1020.964 674.973, 1010.122 682.421, 1003.247 684.831 C 1000.358 685.844, 997.695 686.971, 997.330 687.336 C 996.965 687.701, 1015.079 687.974, 1037.583 687.941 C 1069.663 687.895, 1078.087 687.625, 1076.586 686.691 C 1068.708 681.788, 1066.265 676.268, 1068.376 668.133 C 1069.517 663.731, 1081.992 640.050, 1113.478 582.510 C 1120.999 568.766, 1127.624 556.954, 1128.199 556.260 C 1129.493 554.701, 1153.680 554.506, 1159.100 556.011 C 1164.462 557.500, 1166.532 560.319, 1166.333 565.857 C 1166.241 568.411, 1165.427 572.236, 1164.524 574.358 C 1163.621 576.480, 1163.065 578.398, 1163.287 578.620 C 1163.509 578.842, 1167.473 575.717, 1172.095 571.676 C 1180.866 564.008, 1219.638 531.923, 1224.627 528.205 C 1228.087 525.626, 1226.652 525.605, 1218 528.106 " fill="#ffffff" fill-rule="evenodd" stroke="none" />
</svg>