<svg xmlns="http://www.w3.org/2000/svg" viewBox="751.19 375.31 277.81 424.12" width="100%" height="100%">
  <path d="M 836 533.933 C 836 534.446, 836.860 535.138, 837.911 535.472 C 841.306 536.549, 843.200 540.779, 843.200 547.287 C 843.200 552.887, 842.560 554.619, 834.651 570.420 C 824.485 590.732, 812.170 614.456, 796.197 644.500 C 780.690 673.665, 776.851 677.608, 755 686.812 C 753.190 687.574, 763.746 687.883, 793.250 687.932 C 815.663 687.970, 834 687.784, 834 687.520 C 834 687.257, 832.209 686.127, 830.021 685.011 C 824.707 682.300, 822.655 678.173, 823.222 671.338 C 823.698 665.597, 823.893 665.173, 840.293 634.261 L 850.500 615.022 887.250 615.011 C 907.462 615.011, 924 615.291, 924 615.646 C 924 616.001, 921.024 621.964, 917.387 628.896 C 896.015 669.626, 894.135 672.406, 882.857 679.937 C 879.528 682.160, 874.936 684.509, 872.652 685.158 C 870.369 685.806, 868.073 686.711, 867.550 687.169 C 867.028 687.626, 885.028 687.986, 907.550 687.968 C 950.641 687.935, 950.312 688.044, 942.033 683.773 C 937.839 681.448, 935.623 676, 936.498 670.164 C 937.233 665.262, 941.448 656.876, 970.257 603 C 994.033 558.536, 995.936 555.279, 1001.431 549.624 C 1006.640 544.265, 1016.533 537.622, 1021.822 535.933 C 1023.845 535.287, 1025.927 534.363, 1026.450 533.879 C 1026.998 533.879, 1011.859 533, 990.700 533 C 966.900 533, 954 533.351, 954 534 C 954 534.550, 954.413 535, 954.917 535 C 955.422 535, 956.589 536.975, 957.511 539.390 C 960.113 546.204, 958.405 551.631, 946.618 574 L 936.343 593.500 899.171 593.762 C 878.727 593.906, 862 593.888, 862 593.722 C 862 593.017, 878.493 562.014, 881.642 556.800 C 886.103 549.413, 896.573 539.864, 903.502 536.865 C 906.507 535.564, 908.974 534.163, 908.983 533.750 C 908.992 533.337, 892.575 533, 872.500 533 C 850.592 533, 836 533.373, 836 533.933 " fill="#ffffff" fill-rule="evenodd" stroke="none" />
</svg>