<svg xmlns="http://www.w3.org/2000/svg" viewBox="689.50 706.08 219.52 134.79" width="100%" height="100%">
  <path d="M 870.500 728.976 C 858.842 730.827, 863.753 728.893, 787 761.858 C 776.021 766.573, 775.304 767.031, 777.216 768.101 C 778.118 768.606, 780.787 768.121, 784.095 766.853 C 787.068 765.713, 806.484 759.012, 827.242 751.962 C 854.746 742.621, 867.697 737.700, 874.987 733.822 C 889.020 726.355, 888.763 726.077, 870.500 728.976  M 757.668 756.322 C 754.094 760.899, 749.537 766.078, 747.541 767.830 C 740.526 773.989, 729.788 778.091, 714 780.640 L 709.500 781.367 716.276 782.649 C 724.491 784.203, 729.681 786.542, 731.214 789.380 C 733.174 793.009, 732.316 800.107, 728.662 810.490 C 726.729 815.985, 725.399 820.732 C 725.537 820.871, 728.298 817.050, 731.535 812.242 C 738.597 801.750, 748.023 792.136, 754.160 789.165 C 758.387 787.118, 769.574 784.028, 778.500 782.441 L 782.500 781.730 775 780.064 C 766.458 778.165, 763.907 776.805, 761.616 772.928 C 759.425 769.218, 759.580 765.678, 762.350 756.113 C 763.642 751.651, 764.580 748, 764.433 748 C 764.286 748, 761.242 751.745, 757.668 756.322 " fill="#ffffff" fill-rule="evenodd" stroke="none" />
</svg>