<svg xmlns="http://www.w3.org/2000/svg" viewBox="318.55 704.69 450.77 187.31" width="100%" height="100%">
  <path d="M 733.957 731.976 C 727.609 735.186, 714.334 741.289, 704.457 745.537 C 635.147 775.351, 564.846 794.641, 496.345 802.641 C 477.499 804.842, 429.569 805.170, 417.500 803.182 C 396.506 799.722, 381.455 794.940, 371.666 788.618 C 360.903 781.667, 353 770.737, 353 762.804 C 353 760.712, 352.585 759, 352.078 759 C 350.559 759, 344.276 766.896, 341.841 771.864 C 338.738 778.195, 338.549 791.578, 341.479 797.500 C 347.426 809.519, 363.466 818.099, 388.500 822.652 C 403.556 825.391, 443.404 825.131, 466.500 822.144 C 528.418 814.136, 585.705 798.713, 654.189 771.614 C 669.190 765.679, 678.468 761.601, 704.500 749.500 C 713.778 745.188, 742.563 729.795, 745.502 727.574 C 749.315 724.692, 745.440 726.170, 733.957 731.976  M 713 799.119 C 701.666 804.347, 670.419 816.482, 649.375 823.831 C 568.763 851.979, 487.638 868.370, 425.170 869.130 L 414.500 869.259 422 870.203 C 436.266 871.998, 475.250 869.769, 505.500 865.429 C 565.215 856.863, 643.742 834.870, 700.145 810.915 C 708.040 807.562, 715.737 804.311, 717.250 803.690 C 719.320 802.841, 720 801.874, 720 799.781 C 720 796.463, 718.971 796.366, 713 799.119" fill="#ffffff" fill-rule="evenodd" stroke="none" />
</svg>