<svg xmlns="http://www.w3.org/2000/svg" viewBox="677.81 344.86 432.78 186.35" width="100%" height="100%">
  <path d="M 918 366.067 C 870.848 369.581, 824.184 377.329, 779 389.146 C 750.439 396.615, 700.920 412.625, 698.500 415.172 C 697.811 415.898, 698.121 416.047, 699.500 415.654 C 741.183 403.750, 785.890 393.541, 818.256 388.534 C 909.644 374.396, 981.397 378.336, 1023.500 399.804 C 1032.805 404.548, 1035.816 406.729, 1043.040 413.956 C 1052.102 423.023, 1055.741 429.068, 1058.492 439.631 C 1061.590 451.526, 1059.658 468.930, 1053.623 483.500 C 1050.984 489.871, 1042.878 505.237, 1040.897 507.624 C 1037.924 511.206, 1041.414 509.567, 1048.141 504.221 C 1075.079 482.815, 1090.596 450.819, 1085.591 427 C 1078.723 394.317, 1045.637 374.437, 986.622 367.534 C 970.374 365.633, 934.200 364.860, 918 366.067 " fill="#ffffff" fill-rule="evenodd" stroke="none" />
</svg>